<svg width="559" height="118" viewBox="0 0 559 118" fill="none" xmlns="http://www.w3.org/2000/svg">
<path d="M517.883 0.0122635C497.772 -0.301827 478.029 5.42381 461.206 16.4493C456.557 19.9638 456.557 24.7249 462.339 24.7249C481.043 22.345 522.985 16.4493 531.146 26.9918C539.307 37.5343 522.985 76.4157 515.957 95.0054C513.69 100.9 518.336 102.033 522.985 98.52C554.498 71.4275 562.659 16.2233 556.992 9.19538C552.91 3.52685 536.474 0.0122635 517.883 0.0122635Z" fill="#FF9900"/>
<path d="M3.35933 12.8216C2.3761 12.9916 1.48845 13.5155 0.865234 14.2952C-0.512791 16.1276 -0.214839 18.7197 1.54556 20.1896C36.3972 47.8507 75.224 70.0928 116.715 86.1636C158.513 102.743 202.577 112.908 247.415 116.316C292.481 119.359 337.745 115.227 381.516 104.074C425.288 93.3318 466.736 74.7011 503.827 49.0959C507.73 46.5993 508.87 41.4125 506.375 37.5093C504.036 33.852 499.292 32.5832 495.439 34.5857C456.841 51.8234 416.419 64.6378 374.941 72.7868C333.946 81.2561 292.081 84.757 250.249 83.2151C207.979 80.9295 166.124 73.6632 125.558 61.5639C84.3574 49.4634 44.4518 33.3268 6.42079 13.3877C5.50955 12.8141 4.41458 12.6105 3.35933 12.8216Z" fill="#FF9900"/>
</svg>
