<svg width="279" height="279" viewBox="0 0 279 279" fill="none" xmlns="http://www.w3.org/2000/svg">
<path d="M129.866 7.22435C132.649 -2.40816 146.297 -2.40816 149.08 7.22435L175.039 97.0745C175.992 100.374 178.571 102.953 181.87 103.906L271.72 129.865C281.353 132.648 281.353 146.296 271.72 149.079L181.87 175.038C178.571 175.991 175.992 178.57 175.039 181.869L149.08 271.719C146.297 281.352 132.649 281.352 129.866 271.719L103.907 181.869C102.954 178.57 100.374 175.991 97.0752 175.038L7.22509 149.079C-2.40743 146.296 -2.40743 132.648 7.22508 129.865L97.0752 103.906C100.374 102.953 102.954 100.374 103.907 97.0745L129.866 7.22435Z" fill="#232F3E"/>
</svg>
