<svg width="962" height="216" viewBox="0 0 962 216" fill="none" xmlns="http://www.w3.org/2000/svg">
<path d="M0 216V0H33.3L119.171 102.241C121.169 104.62 124.831 104.62 126.829 102.241L212.7 0H246V216H221.7V41.3082C221.7 36.6436 215.877 34.5198 212.874 38.0891L126.826 140.353C124.828 142.728 121.172 142.728 119.174 140.353L33.1258 38.0891C30.1226 34.5198 24.3 36.6436 24.3 41.3082V216H0Z" fill="white"/>
<path d="M278.62 216V0H303.22V85.7C303.22 91.2228 307.697 95.7 313.22 95.7H368.161C371.115 95.7 373.917 94.3941 375.817 92.1325L453.22 0H484.42V0.299996L399.516 101.564C396.396 105.286 396.401 110.711 399.527 114.427L484.72 215.7V216H453.22L375.817 123.868C373.917 121.606 371.115 120.3 368.161 120.3H313.22C307.697 120.3 303.22 124.777 303.22 130.3V216H278.62Z" fill="white"/>
<path d="M517.383 216V0.299996H697.383C703.983 0.299996 709.983 2 715.383 5.4C720.983 8.6 725.383 12.9 728.583 18.3C731.783 23.7 733.383 29.7 733.383 36.3V99.6C733.383 106.2 731.783 112.2 728.583 117.6C725.383 123 720.983 127.4 715.383 130.8C709.983 134 703.983 135.6 697.383 135.6H551.683C546.16 135.6 541.683 140.077 541.683 145.6V216H517.383ZM553.383 111H697.383C700.583 111 703.283 109.9 705.483 107.7C707.883 105.5 709.083 102.8 709.083 99.6V36.3C709.083 33.1 707.883 30.4 705.483 28.2C703.283 25.8 700.583 24.6 697.383 24.6H553.383C550.183 24.6 547.383 25.8 544.983 28.2C542.783 30.4 541.683 33.1 541.683 36.3V99.6C541.683 102.8 542.783 105.5 544.983 107.7C547.383 109.9 550.183 111 553.383 111Z" fill="white"/>
<path d="M754.987 216V0H779.588V85.7C779.588 91.2228 784.065 95.7 789.588 95.7H844.528C847.482 95.7 850.285 94.3941 852.185 92.1325L929.588 0H960.788V0.299996L875.883 101.564C872.763 105.286 872.768 110.711 875.894 114.427L961.088 215.7V216H929.588L852.185 123.868C850.285 121.606 847.482 120.3 844.528 120.3H789.588C784.065 120.3 779.588 124.777 779.588 130.3V216H754.987Z" fill="white"/>
</svg>
