<svg width="158" height="95" viewBox="0 0 158 95" fill="none" xmlns="http://www.w3.org/2000/svg">
<path d="M79.0692 95.001H41.2235V0.000994682L79.0692 95.001Z" fill="#D9D9D9"/>
<path d="M37.8457 95.001H0V0.00100493L37.8457 95.001Z" fill="#D9D9D9"/>
<path d="M0 95.001H37.8457L37.8457 0.00100493L0 95.001Z" fill="#D9D9D9"/>
<path d="M79.0692 6.10352e-05L41.2235 0.000994682V95.001L79.0692 6.10352e-05Z" fill="#D9D9D9"/>
<path d="M157.652 95.001H119.806V0.000994581L157.652 95.001Z" fill="#D9D9D9"/>
<path d="M157.652 6.10352e-05L119.806 0.000994581V95.001L157.652 6.10352e-05Z" fill="#D9D9D9"/>
<path d="M82.6612 0C95.916 0 106.661 10.7452 106.661 24C106.661 37.2548 95.916 48 82.6612 48V0Z" fill="#D9D9D9"/>
</svg>
