<svg width="366" height="169" viewBox="0 0 366 169" fill="none" xmlns="http://www.w3.org/2000/svg">
<path d="M84.5 0C112.993 0 138.191 14.1027 153.497 35.708C144.147 42.3237 138.034 53.2109 138.001 65.5283C138.013 65.5623 138.027 65.5959 138.039 65.6299H166.884C167.583 68.6933 168.115 71.8199 168.471 75H86.627C81.3804 75.0002 77.127 79.2534 77.127 84.5C77.127 89.7466 81.3804 93.9998 86.627 94H168.471C168.115 97.1801 167.583 100.307 166.884 103.37H138.039C138.027 103.404 138.013 103.437 138.001 103.471C138.034 115.788 144.147 126.675 153.497 133.291C138.191 154.897 112.993 169 84.5 169C37.8319 169 0 131.168 0 84.5C0 37.8319 37.8319 0 84.5 0ZM85.6699 29C54.9243 29.0001 30 53.8483 30 84.5C30 115.152 54.9243 140 85.6699 140C109.732 140 130.227 124.78 138.001 103.471L138 103.37H85.0557C74.6341 103.37 66.1855 94.9216 66.1855 84.5C66.1855 74.0784 74.6341 65.6299 85.0557 65.6299H138C138 65.596 138.001 65.5622 138.001 65.5283C130.227 44.2193 109.732 29 85.6699 29ZM246 140H174.63C166.759 140 159.468 137.516 153.497 133.291C159.776 124.428 164.39 114.303 166.884 103.37H246V140ZM310 29C340.376 29 365 53.6243 365 84V140H326V87.5C326 78.3873 318.613 71 309.5 71C300.387 71 293 78.3873 293 87.5V140H255V84C255 53.6243 279.624 29 310 29ZM246 94H168.471C168.82 90.8814 169 87.7117 169 84.5C169 81.2883 168.82 78.1186 168.471 75H246V94ZM246 65.6299H166.884C164.39 54.6968 159.776 44.5712 153.497 35.708C159.468 31.4832 166.759 29 174.63 29H246V65.6299Z" fill="white"/>
<path d="M344.461 8.0625C344.498 8.71354 344.651 9.24219 344.922 9.64844C345.438 10.4089 346.347 10.7891 347.649 10.7891C348.232 10.7891 348.763 10.7057 349.243 10.5391C350.17 10.2161 350.633 9.63802 350.633 8.80469C350.633 8.17969 350.438 7.73438 350.047 7.46875C349.651 7.20833 349.032 6.98177 348.188 6.78906L346.633 6.4375C345.618 6.20833 344.899 5.95573 344.477 5.67969C343.748 5.20052 343.383 4.48438 343.383 3.53125C343.383 2.5 343.74 1.65365 344.454 0.992188C345.167 0.330729 346.178 0 347.485 0C348.688 0 349.709 0.291667 350.547 0.875C351.391 1.45312 351.813 2.38021 351.813 3.65625H350.352C350.274 3.04167 350.107 2.57031 349.852 2.24219C349.378 1.64323 348.573 1.34375 347.438 1.34375C346.521 1.34375 345.862 1.53646 345.461 1.92188C345.06 2.30729 344.86 2.75521 344.86 3.26562C344.86 3.82812 345.094 4.23958 345.563 4.5C345.87 4.66667 346.566 4.875 347.649 5.125L349.258 5.49219C350.034 5.66927 350.633 5.91146 351.055 6.21875C351.784 6.75521 352.149 7.53385 352.149 8.55469C352.149 9.82552 351.685 10.7344 350.758 11.2812C349.836 11.8281 348.763 12.1016 347.54 12.1016C346.112 12.1016 344.995 11.737 344.188 11.0078C343.381 10.2839 342.985 9.30208 343 8.0625H344.461Z" fill="white"/>
<path d="M354.079 0.289062H356.305L359.602 9.99219L362.875 0.289062H365.079V11.7656H363.602V4.99219C363.602 4.75781 363.607 4.36979 363.618 3.82812C363.628 3.28646 363.633 2.70573 363.633 2.08594L360.36 11.7656H358.821L355.524 2.08594V2.4375C355.524 2.71875 355.529 3.14844 355.54 3.72656C355.555 4.29948 355.563 4.72135 355.563 4.99219V11.7656H354.079V0.289062Z" fill="white"/>
</svg>
