<svg width="382" height="332" viewBox="0 0 382 332" fill="none" xmlns="http://www.w3.org/2000/svg">
<path d="M0 116C0 51.935 51.935 0 116 0V0C180.065 0 232 51.935 232 116V116C232 180.065 180.065 232 116 232H28C12.536 232 0 219.464 0 204V116Z" fill="#232F3E"/>
<path d="M297.146 331.293C250.674 331.293 213 293.619 213 247.146V247.146C213 200.674 250.673 163 297.145 163V163C343.617 163 381.29 200.673 381.29 247.145L381.29 312.06C381.29 322.682 372.679 331.293 362.056 331.293L297.146 331.293Z" fill="#232F3E"/>
<path d="M321.407 13.4597C322.563 11.4705 325.437 11.4705 326.593 13.4597L344.927 44.9874C345.189 45.4372 345.563 45.8112 346.013 46.0727L377.54 64.4066C379.53 65.5634 379.53 68.4366 377.54 69.5934L346.013 87.9273C345.563 88.1888 345.189 88.5628 344.927 89.0126L326.593 120.54C325.437 122.53 322.563 122.53 321.407 120.54L303.073 89.0126C302.811 88.5628 302.437 88.1888 301.987 87.9273L270.46 69.5934C268.47 68.4366 268.47 65.5634 270.46 64.4066L301.987 46.0727C302.437 45.8112 302.811 45.4372 303.073 44.9874L321.407 13.4597Z" fill="#232F3E"/>
</svg>
