<svg width="490" height="484" viewBox="0 0 490 484" fill="none" xmlns="http://www.w3.org/2000/svg">
<path d="M256.854 0C319.683 9.9938e-05 373.005 40.6994 391.899 97.1719C448.372 116.066 489.072 169.388 489.072 232.219C489.072 269.725 474.568 303.843 450.864 329.272C451.214 333.344 451.396 337.464 451.396 341.626C451.395 420.257 387.652 484 309.021 484C285.377 484 263.08 478.234 243.457 468.035C227.599 474.134 210.374 477.479 192.368 477.479C113.737 477.479 49.9941 413.736 49.9941 335.104C49.9941 331.218 50.1515 327.368 50.457 323.561C19.5946 297.444 3.81126e-06 258.425 0 214.829C0.000119854 139.478 58.5361 77.801 132.615 72.7861C156.997 29.3502 203.498 4.66452e-06 256.854 0Z" fill="#232F3E"/>
</svg>
