<svg width="673" height="188" viewBox="0 0 673 188" fill="none" xmlns="http://www.w3.org/2000/svg">
<mask id="mask0_48_4" style="mask-type:luminance" maskUnits="userSpaceOnUse" x="574" y="0" width="97" height="96">
<path d="M670.27 0H574.652V95.62H670.27V0Z" fill="white"/>
</mask>
<g mask="url(#mask0_48_4)">
<mask id="mask1_48_4" style="mask-type:luminance" maskUnits="userSpaceOnUse" x="574" y="0" width="97" height="96">
<path d="M670.27 0H574.652V95.62H670.27V0Z" fill="white"/>
</mask>
<g mask="url(#mask1_48_4)">
<path fill-rule="evenodd" clip-rule="evenodd" d="M645.148 3.18803L629.96 39.7479L666.706 24.5608L670.27 32.4368L633.336 47.6218L670.27 62.8087L666.706 70.4965L629.96 55.3093L645.148 92.0575L637.458 95.62L622.274 58.6837L607.085 95.62L599.399 92.0575L614.4 55.3093L577.841 70.4965L574.652 62.8087L611.211 47.6218L574.652 32.4368L577.841 24.7491L614.4 39.7479L599.399 3.18803L607.085 0L622.274 36.56L637.458 0L645.148 3.18803Z" fill="white"/>
</g>
</g>
<path d="M28.8749 92.373V116.996H44.8207V124.124H28.8749V165.666C28.8749 169.554 29.0425 172.074 29.3777 173.226C29.7608 174.33 30.4072 175.242 31.317 175.962C32.2268 176.634 33.0649 176.97 33.831 176.97C36.9437 176.97 39.8887 174.594 42.666 169.842L44.8207 171.426C40.9419 180.642 34.645 185.25 25.9299 185.25C21.6681 185.25 18.0528 184.074 15.0839 181.722C12.1629 179.322 10.2954 176.658 9.48128 173.73C9.00246 172.098 8.76301 167.683 8.76301 160.483V124.124H0V121.604C6.03354 117.332 11.1573 112.844 15.3712 108.14C19.633 103.437 23.3441 98.1808 26.5045 92.373H28.8749Z" fill="white"/>
<path d="M77.0048 114.98C82.8467 114.98 88.2818 116.492 93.3098 119.516C98.3374 122.54 102.144 126.836 104.73 132.404C107.364 137.971 108.681 144.067 108.681 150.691C108.681 160.243 106.263 168.234 101.426 174.666C95.584 182.442 87.5154 186.33 77.2203 186.33C67.1165 186.33 59.3351 182.778 53.876 175.674C48.417 168.57 45.6875 160.338 45.6875 150.979C45.6875 141.331 48.4648 132.931 54.0198 125.78C59.6223 118.58 67.2838 114.98 77.0048 114.98ZM77.292 120.092C74.8497 120.092 72.7428 121.028 70.971 122.9C69.2473 124.724 68.098 128.371 67.5232 133.843C66.9966 139.267 66.7333 146.827 66.7333 156.522C66.7333 161.659 67.0683 166.458 67.7387 170.922C68.2657 174.33 69.3907 176.922 71.1148 178.698C72.8384 180.474 74.8019 181.362 77.0048 181.362C79.1595 181.362 80.9553 180.762 82.3917 179.562C84.2592 177.93 85.5045 175.65 86.1267 172.722C87.0844 168.162 87.5635 158.947 87.5635 145.075C87.5635 136.915 87.1086 131.323 86.1988 128.3C85.289 125.228 83.9481 122.996 82.1762 121.604C80.9314 120.596 79.3033 120.092 77.292 120.092Z" fill="white"/>
<path d="M140.293 86.6848V150.907L155.879 135.571C159.087 132.451 161.075 130.195 161.841 128.803C162.655 127.412 163.062 126.067 163.062 124.772C163.062 123.476 162.535 122.396 161.482 121.532C160.428 120.668 158.369 120.044 155.305 119.66V116.996H185.401V119.66C182.527 119.804 180.013 120.5 177.859 121.748C175.704 122.948 171.49 126.62 165.217 132.763L157.89 139.963L173.693 163.146C180.061 172.554 183.844 177.834 185.041 178.986C186.669 180.618 188.728 181.53 191.218 181.722V184.314H156.526V181.722C158.058 181.722 159.159 181.434 159.83 180.858C160.548 180.282 160.907 179.658 160.907 178.986C160.907 177.882 159.902 175.842 157.89 172.866L144.602 153.355L140.293 157.602V169.698C140.293 174.834 140.771 178.05 141.729 179.346C142.687 180.594 144.65 181.386 147.619 181.722V184.314H112.926V181.722C115.751 181.434 117.763 180.522 118.96 178.986C119.773 177.93 120.181 174.834 120.181 169.698V101.301C120.181 96.2127 119.702 93.0447 118.744 91.7966C117.834 90.5488 115.895 89.7326 112.926 89.3489V86.6848H140.293Z" fill="white"/>
<path d="M245.885 148.243H209.037C209.468 157.171 211.838 164.226 216.148 169.41C219.452 173.394 223.426 175.386 228.071 175.386C230.944 175.386 233.554 174.594 235.9 173.01C238.247 171.378 240.761 168.474 243.442 164.298L245.885 165.882C242.245 173.322 238.223 178.602 233.817 181.722C229.412 184.794 224.312 186.33 218.518 186.33C208.558 186.33 201.016 182.49 195.892 174.81C191.774 168.618 189.715 160.939 189.715 151.771C189.715 140.539 192.732 131.611 198.765 124.987C204.847 118.316 211.958 114.98 220.098 114.98C226.898 114.98 232.788 117.788 237.768 123.404C242.796 128.972 245.501 137.251 245.885 148.243ZM228.215 143.419C228.215 135.691 227.784 130.388 226.922 127.507C226.108 124.628 224.815 122.444 223.043 120.956C222.038 120.092 220.697 119.66 219.021 119.66C216.531 119.66 214.496 120.884 212.915 123.332C210.09 127.604 208.678 133.459 208.678 140.899V143.419H228.215Z" fill="white"/>
<path d="M275.913 116.996V125.708C279.361 121.964 282.665 119.252 285.826 117.572C288.986 115.844 292.386 114.98 296.025 114.98C300.383 114.98 303.998 116.204 306.871 118.652C309.744 121.052 311.66 124.052 312.617 127.652C313.384 130.387 313.766 135.643 313.766 143.419V169.626C313.766 174.81 314.221 178.05 315.131 179.346C316.089 180.594 318.052 181.386 321.021 181.722V184.314H287.047V181.722C289.584 181.386 291.404 180.33 292.506 178.554C293.272 177.354 293.655 174.378 293.655 169.626V139.675C293.655 134.155 293.439 130.675 293.008 129.236C292.577 127.796 291.835 126.692 290.782 125.924C289.776 125.108 288.651 124.7 287.406 124.7C283.288 124.7 279.457 127.652 275.913 133.555V169.626C275.913 174.666 276.368 177.858 277.278 179.202C278.236 180.546 279.984 181.386 282.522 181.722V184.314H248.547V181.722C251.372 181.434 253.383 180.522 254.58 178.986C255.395 177.93 255.801 174.81 255.801 169.626V131.611C255.801 126.524 255.322 123.356 254.365 122.108C253.455 120.86 251.516 120.044 248.547 119.66V116.996H275.913Z" fill="white"/>
<path d="M351.125 92.373V116.996H367.071V124.124H351.125V165.666C351.125 169.554 351.292 172.074 351.628 173.226C352.011 174.33 352.657 175.242 353.567 175.962C354.477 176.634 355.315 176.97 356.081 176.97C359.194 176.97 362.139 174.594 364.916 169.842L367.071 171.426C363.192 180.642 356.895 185.25 348.18 185.25C343.918 185.25 340.303 184.074 337.334 181.722C334.413 179.322 332.545 176.658 331.731 173.73C331.252 172.098 331.013 167.683 331.013 160.483V124.124H322.25V121.604C328.283 117.332 333.407 112.844 337.621 108.14C341.883 103.437 345.594 98.1808 348.754 92.373H351.125Z" fill="white"/>
<path d="M395.446 116.996V132.259C399.9 125.3 403.802 120.692 407.156 118.436C410.506 116.132 413.739 114.98 416.85 114.98C419.531 114.98 421.664 115.82 423.245 117.5C424.871 119.132 425.687 121.46 425.687 124.484C425.687 127.699 424.897 130.195 423.315 131.971C421.782 133.748 419.917 134.635 417.714 134.635C415.173 134.635 412.974 133.819 411.106 132.188C409.237 130.556 408.134 129.644 407.799 129.452C407.321 129.164 406.77 129.02 406.148 129.02C404.758 129.02 403.441 129.547 402.198 130.604C400.235 132.235 398.749 134.563 397.745 137.587C396.211 142.243 395.446 147.379 395.446 152.995V168.474L395.516 172.506C395.516 175.242 395.685 176.994 396.02 177.762C396.594 179.058 397.432 180.018 398.536 180.642C399.683 181.218 401.599 181.578 404.28 181.722V184.314H368.008V181.722C370.928 181.482 372.892 180.69 373.899 179.346C374.951 177.954 375.477 174.33 375.477 168.474V131.252C375.477 127.412 375.286 124.964 374.903 123.908C374.425 122.564 373.73 121.58 372.822 120.956C371.91 120.332 370.306 119.9 368.008 119.66V116.996H395.446Z" fill="white"/>
<path d="M491.917 116.996V169.699C491.917 174.834 492.395 178.05 493.355 179.346C494.311 180.594 496.249 181.386 499.173 181.722V184.314H471.804V175.314C468.597 179.154 465.387 181.962 462.18 183.738C458.973 185.466 455.38 186.33 451.405 186.33C447.624 186.33 444.248 185.178 441.277 182.874C438.357 180.522 436.393 177.786 435.389 174.666C434.381 171.547 433.881 166.099 433.881 158.323V131.612C433.881 126.524 433.399 123.356 432.443 122.108C431.535 120.86 429.593 120.044 426.625 119.66V116.996H453.99V163.003C453.99 167.802 454.207 170.899 454.637 172.29C455.115 173.682 455.836 174.738 456.792 175.458C457.8 176.178 458.947 176.538 460.242 176.538C461.963 176.538 463.522 176.082 464.909 175.17C466.825 173.922 469.123 171.402 471.804 167.611V131.612C471.804 126.524 471.326 123.356 470.37 122.108C469.458 120.86 467.52 120.044 464.552 119.66V116.996H491.917Z" fill="white"/>
<path d="M545.508 115.124L546.585 138.091H544.144C541.22 131.276 538.182 126.62 535.019 124.124C531.908 121.628 528.797 120.38 525.682 120.38C523.718 120.38 522.045 121.052 520.655 122.396C519.265 123.692 518.573 125.203 518.573 126.932C518.573 128.228 519.051 129.476 520.007 130.675C521.541 132.644 525.825 136.027 532.864 140.827C539.903 145.579 544.526 149.635 546.729 152.995C548.98 156.306 550.105 160.027 550.105 164.154C550.105 167.898 549.171 171.57 547.303 175.17C545.434 178.77 542.801 181.53 539.403 183.45C536.001 185.37 532.243 186.33 528.124 186.33C524.917 186.33 520.629 185.321 515.267 183.306C513.833 182.778 512.851 182.514 512.321 182.514C510.744 182.514 509.427 183.714 508.372 186.114H506.003L504.852 161.922H507.294C509.449 168.258 512.395 173.01 516.131 176.178C519.912 179.346 523.479 180.93 526.833 180.93C529.132 180.93 530.996 180.234 532.434 178.842C533.92 177.402 534.663 175.674 534.663 173.658C534.663 171.354 533.942 169.362 532.508 167.682C531.07 166.002 527.863 163.458 522.88 160.051C515.554 154.963 510.813 151.075 508.658 148.387C505.499 144.451 503.918 140.107 503.918 135.355C503.918 130.171 505.691 125.492 509.236 121.316C512.825 117.092 517.996 114.98 524.748 114.98C528.389 114.98 531.908 115.868 535.306 117.644C536.601 118.364 537.653 118.724 538.469 118.724C539.33 118.724 540.025 118.556 540.55 118.22C541.076 117.836 541.915 116.804 543.066 115.124H545.508Z" fill="white"/>
<path d="M581.142 92.373V116.996H597.088V124.124H581.142V165.666C581.142 169.554 581.308 172.074 581.646 173.226C582.028 174.33 582.676 175.242 583.584 175.962C584.492 176.634 585.331 176.97 586.099 176.97C589.211 176.97 592.157 174.594 594.933 169.842L597.088 171.426C593.208 180.642 586.912 185.25 578.196 185.25C573.934 185.25 570.319 184.074 567.351 181.722C564.431 179.322 562.563 176.658 561.746 173.73C561.268 172.098 561.029 167.683 561.029 160.483V124.124H552.266V121.604C558.301 117.332 563.423 112.844 567.638 108.14C571.9 103.437 575.611 98.1808 578.77 92.373H581.142Z" fill="white"/>
</svg>
